#!OML:ASF F:\VICON\USERDATA\INSTALL\rory3\rory3.ASF
:FULLY-SPECIFIED
:DEGREES
1
root -0.42999070376921417 18.19249290586204 -35.88878275048711 7.924996729156688 -6.2838647331799775 1.647366867029383
lfemur 15.85738246649164 -4.32144074942398 -31.2674853960712
ltibia 33.78570822150529
lfoot 29.740886533536877 -23.224883605069195
ltoes -13.245095658722441
rfemur -40.99518873745751 3.873416494133389 22.490509673727605
rtibia 26.429811485146615
rfoot -1.5824167232752422 -2.1479486615700685
rtoes -20.592885567447304
lowerback 13.74050526781166 -0.9074462582835515 -3.289376263604214
upperback -1.1525660965451383 -1.637395991000044 1.359170638443616
thorax -8.841103308066067 -0.5939071901672599 3.6681449011163343
lowerneck -18.28860589804126 -1.5193279200772705 -1.8711474130799433
upperneck 13.183194509643846 -1.7164273438649746 0.8344473620209523
head 7.053508476003217 -0.841989725475921 0.38273320513419673
lclavicle -6.477656196834897e-16 -4.860687345149948e-15
lhumerus -41.173306608872316 -13.96339768348201 94.32490977626017
lradius 122.4529862200269
lwrist 37.41239207856066
lhand -24.880723526256766 -0.5495244832475469
lfingers 7.125019999999998
lthumb 1.626736470656085 29.424002284400498
rclavicle -6.477656196834897e-16 -4.860687345149948e-15
rhumerus -67.26167915093421 5.14737368495564 -90.97461991980583
rradius 105.25800619588973
rwrist -13.459301023457366
rhand -21.746084971111554 41.110391805144815
rfingers 7.125019999999998
rthumb 4.653925032576357 11.181491988173608
2
root -0.419360055624203 18.14699361941301 -34.805983183365555 7.517528946342079 -4.750207947999625 1.7676764064048507
lfemur 14.144383383094244 -5.413567991752805 -30.742586180776545
ltibia 41.798205287264025
lfoot 30.367686208423464 -23.544683205141546
ltoes -8.29851027436584
rfemur -40.37778903840275 1.9705301018500456 23.256008521261883
rtibia 24.56741209533505
rfoot -1.9452765024767715 -3.747695790317158
rtoes -23.335483852710816
lowerback 13.459306422645046 -1.7050999199934305 -2.570798354547782
upperback -0.7768301680396076 -2.567011010886882 1.3877204165286354
thorax -8.219578661397533 -1.0971195514137293 3.4554059360110645
lowerneck -17.881407802355362 -1.6522069765182241 -2.2533801205199238
upperneck 12.406297663714174 -1.8187068492870009 0.927718863686199
head 6.7385327678294935 -0.9017460825438575 0.4678778544796982
lclavicle -6.477656191019273e-16 -4.860687381998591e-15
lhumerus -41.37650645839072 -13.443598771983073 94.29710987687197
lradius 120.43398862886333
lwrist 37.916891572886854
lhand -25.931819862074633 -0.7375378462718268
lfingers 7.125019999999998
lthumb 0.6116131355652108 29.241302903067268
rclavicle -6.477656191019273e-16 -4.860687381998591e-15
rhumerus -65.36948142950175 4.541875026336654 -90.36932139348538
rradius 104.28900722948428
rwrist -13.789400270989733
rhand -20.197092322436877 40.31789335860884
rfingers 7.125019999999998
rthumb 6.149527677735673 10.427193469049847
3
root -0.41373024196072716 18.06289493830613 -33.732483612526366 6.820782737600116 -4.800767842017008 1.1951985982287197
lfemur 11.940784562210087 -4.384750589563746 -29.475788074593925
ltibia 49.990702287105215
lfoot 34.7221839497986 -23.293183519656246
ltoes -2.9317852820401793
rfemur -39.247989589111924 1.0442718579597663 24.964305949404007
rtibia 24.65221206755161
rfoot -0.6173913104887032 -4.57898429830665
rtoes -22.14928459435028
lowerback 14.28660302508579 -1.1154353448161731 -1.6060211618907974
upperback 0.04670630807541343 -1.6576758823570605 1.0998426541778346
thorax -7.900571409078696 -0.7172415630480453 2.4275609360888235
lowerneck -21.380591437974484 -2.1422134970377167 -0.9455180730221375
upperneck 13.276494130863107 -2.7235724737612275 0.5813427143187146
head 7.595121096045922 -1.2881019256545687 0.005133385021984904
lclavicle -6.477657043867572e-16 -4.860687356994138e-15
lhumerus -40.27630727315377 -15.217295057719252 94.16371035966388
lradius 117.55799206017275
lwrist 38.0398914496007
lhand -26.3901182644201 -0.010034011002375803
lfingers 7.125019999999998
lthumb 0.16893673376391316 29.969600436865786
rclavicle -6.477657043867572e-16 -4.860687356994138e-15
rhumerus -62.46308492935829 1.6175515046864284 -89.82562271719195
rradius 103.44500812974617
rwrist -13.305701373590743
rhand -19.088297584637985 40.17529363813435
rfingers 7.125019999999998
rthumb 7.219872414161793 10.318493682454662
4
root -0.408351419989886 17.90139747102002 -32.68958402945371 6.040546983156158 -5.972105386683478 0.22822730043472395
lfemur 9.258705997353825 -2.296765861820542 -27.688590746389366
ltibia 58.802299060227085
lfoot 37.840082332582675 -20.875586542999294
ltoes -2.5781256120389235
rfemur -38.63418988830227 -0.09525058159907385 27.50530212391034
rtibia 27.628411092442576
rfoot 0.39318707457905866 -2.3683382660111167
rtoes -21.232385167617227
lowerback 14.23580323371145 -1.030566125599841 -1.1496824897612994
upperback 0.27094747818618703 -1.4285171100013998 1.6272185549301108
thorax -7.639763655474494 -0.619484852727622 2.6788097138584024
lowerneck -19.026402447641107 -1.889275293123104 -1.905156764220675
upperneck 12.028799196294361 -2.2164949257616304 1.0306893135315063
head 6.80876181089585 -1.062034357966304 0.39419502331471096
lclavicle -6.477657415024086e-16 -4.8606873629162415e-15
lhumerus -41.20990658176785 -13.06859955726183 94.40970946935798
lradius 114.39199583747646
lwrist 37.55379193683168
lhand -26.179518998581237 0.35571544986481807
lfingers 7.125019999999998
lthumb 0.37232999945134715 30.335099199193614
rclavicle -6.477657415024086e-16 -4.8606873629162415e-15
rhumerus -60.893486819454225 2.4320297003462077 -89.7563228859116
rradius 102.33200931693989
rwrist -12.899602299301455
rhand -19.50009563029598 40.52479295304201
rfingers 7.125019999999998
rthumb 6.8223843688663095 10.65469302241144
5
root -0.401752638397475 17.686000849017375 -31.646884446301268 5.074032242326193 -6.760543733975337 -0.5501107195722859
lfemur 6.025577727356822 0.15710194205117145 -25.457994081050767
ltibia 67.8738957381349
lfoot 38.46078201063324 -19.476488292651528
ltoes 0.8781701629022542
rfemur -38.34499002926984 -0.6084970085259092 29.04549980512823
rtibia 33.236809254931075
rfoot -0.047953956988678215 3.1704517928758635
rtoes -3.051606534665049
lowerback 15.612397580284552 -0.5740273256860776 -0.11731349378533484
upperback 0.4783732305097216 -0.6632112098813628 1.420990157925784
thorax -8.243288457179734 -0.2866682434930536 1.7385942876513822
lowerneck -20.31659641388362 -2.16039336794453 -1.5594033607975717
upperneck 13.331193908791223 -2.737182407949669 1.4182472428713147
head 7.459062949960085 -1.2477623596770224 0.3888661078476053
lclavicle -6.477656322493604e-16 -4.860687327383654e-15
lhumerus -41.4765063843348 -13.250599176139874 94.34970968650575
lradius 110.8850000216218
lwrist 37.08319240852658
lhand -26.393418252916142 -0.21023163274726522
lfingers 7.125019999999998
lthumb 0.16578374514718863 29.76940111479183
rclavicle -6.477656322493604e-16 -4.860687327383654e-15
rhumerus -58.57248961437822 1.301062205815576 -90.31302153055488
rradius 101.08901064279955
rwrist -12.516103173495148
rhand -20.13039263898523 41.14569173594951
rfingers 7.125019999999998
rthumb 6.213897361188513 11.256891840144874
6
root -0.4126282784337026 17.462704350905998 -30.59998486482787 4.301176447725104 -7.921181301070893 -1.0719927214626428
lfemur 2.8898594052371323 2.9526908830614085 -23.299497307925424
ltibia 76.36769262763765
lfoot 39.232181610517685 -20.671486798237666
ltoes 7.307505163709834
rfemur -37.847490271770994 0.6982745139423783 29.566699020457904
rtibia 40.43900689523393
rfoot -4.78597477392513 2.6353827532267156
rtoes 6.63505740900621
lowerback 16.636293375327554 -0.4292246578481874 -0.5811821440038352
upperback -0.14668999627196477 -0.47105023932189394 2.2175739661480423
thorax -9.500577627865532 -0.1381372030255416 2.8514788738881545
lowerneck -17.50210957619214 -1.8504255689905693 -3.0949840636855703
upperneck 13.022995160026225 -2.0230358612432027 1.7092356881664688
head 6.896350617419871 -0.9741493035413407 0.8367040037691583
lclavicle -6.477657387099955e-16 -4.860687340543884e-15
lhumerus -43.7785046795679 -10.244905470306168 95.45790567578626
lradius 107.67200385500047
lwrist 35.705693789231496
lhand -25.749120498975078 0.6219155479980759
lfingers 7.125019999999998
lthumb 0.7880264986584402 30.60019830150034
rclavicle -6.477657387099955e-16 -4.860687340543884e-15
rhumerus -58.066490223698146 3.5879771395379363 -90.51302104362954
rradius 100.40301137452902
rwrist -12.677702805125652
rhand -21.113787971914007 41.46419111162361
rfingers 7.125019999999998
rthumb 5.264492030025511 11.549491265699189
7
root -0.4374744560707164 17.264007467006614 -29.570085276558157 3.509300756618421 -7.702631759189886 -1.2587020066159487
lfemur -0.5908267322949925 4.323017422924313 -21.027500704478243
ltibia 84.29278972540283
lfoot 36.22108317233784 -19.66658805492093
ltoes 6.751045682940459
rfemur -36.79779078343622 2.148429764566864 29.61589894638695
rtibia 47.07030472258397
rfoot -9.859431686750247 -0.267510036612741
rtoes 10.731994847505153
lowerback 17.468389958055635 -0.3189056727657593 -0.5125983435714119
upperback 0.09317620452514808 -0.29947815846407255 2.3229431471224213
thorax -9.715935772937428 -0.05574229004080905 2.897288651040881
lowerneck -17.84830795715103 -2.0026644879593447 -3.141823170049345
upperneck 13.35819379917621 -2.1957850259054505 1.6288661175682606
head 7.067758281836842 -1.0658943164361416 0.7961556469900879
lclavicle -6.477657491815318e-16 -4.8606873741023546e-15
lhumerus -44.4659041705076 -9.330517385108955 95.88600412643684
lradius 104.31400786137631
lwrist 36.1652933285622
lhand -27.083615846847753 0.6741373710743046
lfingers 7.125019999999998
lthumb -0.5008648480452633 30.65329812169078
rclavicle -6.477657491815318e-16 -4.8606873741023546e-15
rhumerus -55.06769383482181 4.165135860939281 -91.35851898515266
rradius 99.57571225697765
rwrist -12.216603856209648
rhand -21.80638468493666 40.864692286767664
rfingers 7.125019999999998
rthumb 4.595715318830976 10.934592472898968
8
root -0.48435390444681037 17.053410769728263 -28.61178565966451 3.1657726258841197 -7.008603213998189 -3.193884597456429
lfemur -5.589426057612414 5.476954509180462 -16.266507821990544
ltibia 92.25638680906906
lfoot 34.462284084605464 -20.11368749579755
ltoes 13.538679349420606
rfemur -34.85739172926389 3.9997062546983573 31.954395425758488
rtibia 51.41350329959705
rfoot -14.501588862019261 -6.069261623531991
rtoes 7.13185709839542
lowerback 18.518685644679003 -0.31016275319926445 1.1118709294900944
upperback 0.2666765244664674 0.12348857562782845 2.8973086826282883
thorax -10.138792130780582 0.0844978598063294 2.504590561368791
lowerneck -17.89690772986796 -2.123273631527553 -2.834319036874195
upperneck 13.056595023616435 -2.385274109620931 1.3532275902609439
head 6.974609551071771 -1.1654532452592683 0.6354941955719845
lclavicle -6.47765706131913e-16 -4.860687405686972e-15
lhumerus -44.794103927456135 -8.827478438513294 96.11710329005598
lradius 100.74301212187902
lwrist 36.308393185129255
lhand -29.81540632366942 1.3244061680104984
lfingers 7.125019999999998
lthumb -3.1392063228167095 31.28099599614544
rclavicle -6.47765706131913e-16 -4.860687405686972e-15
rhumerus -51.5095981194487 4.656234772991775 -92.18941696222129
rradius 98.88331299553374
rwrist -11.881304620530752
rhand -20.81498938997469 40.022493937653955
rfingers 7.125019999999998
rthumb 5.55302061114479 10.115294081386189
